<?xml version="1.0" encoding="UTF-8" standalone="no"?>
<!DOCTYPE svg PUBLIC "-//W3C//DTD SVG 1.1//EN" "http://www.w3.org/Graphics/SVG/1.1/DTD/svg11.dtd">
<!-- Generated by Microsoft Visio, SVG Export DilithiumArch.svg Page-7 -->
<svg xmlns="http://www.w3.org/2000/svg" xmlns:xlink="http://www.w3.org/1999/xlink" xmlns:ev="http://www.w3.org/2001/xml-events"
		xmlns:v="http://schemas.microsoft.com/visio/2003/SVGExtensions/" width="11in" height="8.5in" viewBox="0 0 792 612"
		xml:space="preserve" color-interpolation-filters="sRGB" class="st12">
	<v:documentProperties v:langID="1033" v:viewMarkup="false">
		<v:userDefs>
			<v:ud v:nameU="msvSubprocessMaster" v:prompt="" v:val="VT4(Rectangle)"/>
			<v:ud v:nameU="msvNoAutoConnect" v:val="VT0(1):26"/>
		</v:userDefs>
	</v:documentProperties>

	<style type="text/css">
	<![CDATA[
		.st1 {visibility:visible}
		.st2 {fill:#000000;fill-opacity:0.4;filter:url(#filter_2.6666667461395);stroke:#000000;stroke-opacity:0.4}
		.st3 {fill:url(#grad0-7);stroke:#ba8c00;stroke-width:0.75}
		.st4 {fill:#feffff;font-family:Calibri;font-size:1.00001em}
		.st5 {fill:url(#grad0-15);stroke:#40709c;stroke-width:0.75}
		.st6 {font-size:1em}
		.st7 {fill:url(#grad0-25);stroke:#ae5a21;stroke-width:0.75}
		.st8 {fill:url(#grad0-40);stroke:#8a98ab;stroke-width:0.75}
		.st9 {fill:url(#grad0-48);stroke:#2d5171;stroke-width:0.75}
		.st10 {marker-end:url(#mrkr4-69);stroke:#5b9bd5;stroke-linecap:round;stroke-linejoin:round;stroke-width:1}
		.st11 {fill:#5b9bd5;fill-opacity:1;stroke:#5b9bd5;stroke-opacity:1;stroke-width:0.28409090909091}
		.st12 {fill:none;fill-rule:evenodd;font-size:12px;overflow:visible;stroke-linecap:square;stroke-miterlimit:3}
	]]>
	</style>

	<defs id="Patterns_And_Gradients">
		<linearGradient id="grad0-7" x1="0" y1="0" x2="1" y2="0" gradientTransform="rotate(250 0.5 0.5)">
			<stop offset="0" stop-color="#dfa800" stop-opacity="1"/>
			<stop offset="0.48" stop-color="#dfa800" stop-opacity="1"/>
			<stop offset="0.82" stop-color="#fec000" stop-opacity="1"/>
		</linearGradient>
		<linearGradient id="grad0-15" x1="0" y1="0" x2="1" y2="0" gradientTransform="rotate(250 0.5 0.5)">
			<stop offset="0" stop-color="#4f87bb" stop-opacity="1"/>
			<stop offset="0.48" stop-color="#4f87bb" stop-opacity="1"/>
			<stop offset="0.82" stop-color="#5b9bd5" stop-opacity="1"/>
		</linearGradient>
		<linearGradient id="grad0-25" x1="0" y1="0" x2="1" y2="0" gradientTransform="rotate(250 0.5 0.5)">
			<stop offset="0" stop-color="#d06d29" stop-opacity="1"/>
			<stop offset="0.48" stop-color="#d06d29" stop-opacity="1"/>
			<stop offset="0.82" stop-color="#ed7d31" stop-opacity="1"/>
		</linearGradient>
		<linearGradient id="grad0-40" x1="0" y1="0" x2="1" y2="0" gradientTransform="rotate(250 0.5 0.5)">
			<stop offset="0" stop-color="#a6b6cd" stop-opacity="1"/>
			<stop offset="0.48" stop-color="#a6b6cd" stop-opacity="1"/>
			<stop offset="0.82" stop-color="#bdd0e9" stop-opacity="1"/>
		</linearGradient>
		<linearGradient id="grad0-48" x1="0" y1="0" x2="1" y2="0" gradientTransform="rotate(250 0.5 0.5)">
			<stop offset="0" stop-color="#386288" stop-opacity="1"/>
			<stop offset="0.48" stop-color="#386288" stop-opacity="1"/>
			<stop offset="0.82" stop-color="#41719c" stop-opacity="1"/>
		</linearGradient>
	</defs>
	<defs id="Markers">
		<g id="lend4">
			<path d="M 2 1 L 0 0 L 2 -1 L 2 1 " style="stroke:none"/>
		</g>
		<marker id="mrkr4-69" class="st11" v:arrowType="4" v:arrowSize="2" v:setback="7.04" refX="-7.04" orient="auto"
				markerUnits="strokeWidth" overflow="visible">
			<use xlink:href="#lend4" transform="scale(-3.52,-3.52) "/>
		</marker>
	</defs>
	<defs id="Filters">
		<filter id="filter_2.6666667461395">
			<feGaussianBlur stdDeviation="2.6666667461395"/>
		</filter>
	</defs>
	<g v:mID="15" v:index="7" v:groupContext="foregroundPage">
		<v:userDefs>
			<v:ud v:nameU="msvThemeOrder" v:val="VT0(0):26"/>
		</v:userDefs>
		<title>Page-7</title>
		<v:pageProperties v:drawingScale="1" v:pageScale="1" v:drawingUnits="0" v:shadowOffsetX="9" v:shadowOffsetY="-9"/>
		<v:layer v:name="Connector" v:index="0"/>
		<g id="shape1000-1" v:mID="1000" v:groupContext="shape" transform="translate(135,-450)">
			<title>Rectangle.19</title>
			<desc>DXIL</desc>
			<v:userDefs>
				<v:ud v:nameU="CTypeTopLeftSnip" v:prompt="" v:val="VT0(0):5"/>
				<v:ud v:nameU="CTypeTopRightSnip" v:prompt="" v:val="VT0(0):5"/>
				<v:ud v:nameU="CTypeBotLeftSnip" v:prompt="" v:val="VT0(0):5"/>
				<v:ud v:nameU="CTypeBotRightSnip" v:prompt="" v:val="VT0(0):5"/>
				<v:ud v:nameU="CornerLockHoriz" v:prompt="" v:val="VT0(1):5"/>
				<v:ud v:nameU="CornerLockVert" v:prompt="" v:val="VT0(1):5"/>
				<v:ud v:nameU="CornerLockDiag" v:prompt="" v:val="VT0(0):5"/>
				<v:ud v:nameU="TopLeftOffset" v:prompt="" v:val="VT0(0.15):1"/>
				<v:ud v:nameU="TopRightOffset" v:prompt="" v:val="VT0(0.15):1"/>
				<v:ud v:nameU="BotLeftOffset" v:prompt="" v:val="VT0(0.15):1"/>
				<v:ud v:nameU="BotRightOffset" v:prompt="" v:val="VT0(0.15):1"/>
				<v:ud v:nameU="visVersion" v:prompt="" v:val="VT0(15):26"/>
			</v:userDefs>
			<v:textBlock v:margins="rect(4,4,4,4)"/>
			<v:textRect cx="54" cy="589.5" width="108" height="45"/>
			<g id="shadow1000-2" v:groupContext="shadow" v:shadowOffsetX="2.12132" v:shadowOffsetY="-2.12132" v:shadowType="1"
					transform="matrix(1,0,0,1,2.12132,2.12132)" class="st1">
				<path d="M10.8 612 L97.2 612 A10.7998 10.7998 -180 0 0 108 601.2 L108 577.8 A10.7998 10.7998 -180 0 0 97.2 567 L10.8
							 567 A10.7998 10.7998 -180 0 0 0 577.8 L0 601.2 A10.7998 10.7998 -180 0 0 10.8 612 Z" class="st2"/>
			</g>
			<path d="M10.8 612 L97.2 612 A10.7998 10.7998 -180 0 0 108 601.2 L108 577.8 A10.7998 10.7998 -180 0 0 97.2 567 L10.8
						 567 A10.7998 10.7998 -180 0 0 0 577.8 L0 601.2 A10.7998 10.7998 -180 0 0 10.8 612 Z" class="st3"/>
			<text x="43.16" y="593.1" class="st4" v:langID="2052"><v:paragraph v:horizAlign="1"/><v:tabList/>DXIL</text>		</g>
		<g id="shape1015-9" v:mID="1015" v:groupContext="shape" transform="translate(135,-378)">
			<title>Snip Corner Rectangle.1015</title>
			<desc>DXIL Parser</desc>
			<v:userDefs>
				<v:ud v:nameU="CTypeTopLeftSnip" v:prompt="" v:val="VT0(1):5"/>
				<v:ud v:nameU="CTypeTopRightSnip" v:prompt="" v:val="VT0(1):5"/>
				<v:ud v:nameU="CTypeBotLeftSnip" v:prompt="" v:val="VT0(1):5"/>
				<v:ud v:nameU="CTypeBotRightSnip" v:prompt="" v:val="VT0(1):5"/>
				<v:ud v:nameU="CornerLockHoriz" v:prompt="" v:val="VT0(0):5"/>
				<v:ud v:nameU="CornerLockVert" v:prompt="" v:val="VT0(0):5"/>
				<v:ud v:nameU="CornerLockDiag" v:prompt="" v:val="VT0(0):5"/>
				<v:ud v:nameU="TopLeftOffset" v:prompt="" v:val="VT0(0.15):1"/>
				<v:ud v:nameU="TopRightOffset" v:prompt="" v:val="VT0(0.15):1"/>
				<v:ud v:nameU="BotLeftOffset" v:prompt="" v:val="VT0(0.15):1"/>
				<v:ud v:nameU="BotRightOffset" v:prompt="" v:val="VT0(0.15):1"/>
				<v:ud v:nameU="visVersion" v:prompt="" v:val="VT0(15):26"/>
			</v:userDefs>
			<v:textBlock v:margins="rect(4,4,4,4)"/>
			<v:textRect cx="54" cy="589.5" width="108" height="45"/>
			<g id="shadow1015-10" v:groupContext="shadow" v:shadowOffsetX="2.12132" v:shadowOffsetY="-2.12132" v:shadowType="1"
					transform="matrix(1,0,0,1,2.12132,2.12132)" class="st1">
				<path d="M10.8 612 L97.2 612 L108 601.2 L108 577.8 L97.2 567 L10.8 567 L0 577.8 L0 601.2 L10.8 612 Z" class="st2"/>
			</g>
			<path d="M10.8 612 L97.2 612 L108 601.2 L108 577.8 L97.2 567 L10.8 567 L0 577.8 L0 601.2 L10.8 612 Z" class="st5"/>
			<text x="26.31" y="593.1" class="st4" v:langID="2052"><v:paragraph v:horizAlign="1"/><v:tabList/>DXIL<tspan class="st6"
						v:langID="1033"> </tspan><tspan class="st6" v:langID="1033">Parser</tspan></text>		</g>
		<g id="shape1002-19" v:mID="1002" v:groupContext="shape" transform="translate(405,-450)">
			<title>Rounded Rectangle.1037</title>
			<desc>SPIR-V</desc>
			<v:userDefs>
				<v:ud v:nameU="CTypeTopLeftSnip" v:prompt="" v:val="VT0(0):5"/>
				<v:ud v:nameU="CTypeTopRightSnip" v:prompt="" v:val="VT0(0):5"/>
				<v:ud v:nameU="CTypeBotLeftSnip" v:prompt="" v:val="VT0(0):5"/>
				<v:ud v:nameU="CTypeBotRightSnip" v:prompt="" v:val="VT0(0):5"/>
				<v:ud v:nameU="CornerLockHoriz" v:prompt="" v:val="VT0(1):5"/>
				<v:ud v:nameU="CornerLockVert" v:prompt="" v:val="VT0(1):5"/>
				<v:ud v:nameU="CornerLockDiag" v:prompt="" v:val="VT0(0):5"/>
				<v:ud v:nameU="TopLeftOffset" v:prompt="" v:val="VT0(0.15):1"/>
				<v:ud v:nameU="TopRightOffset" v:prompt="" v:val="VT0(0.15):1"/>
				<v:ud v:nameU="BotLeftOffset" v:prompt="" v:val="VT0(0.15):1"/>
				<v:ud v:nameU="BotRightOffset" v:prompt="" v:val="VT0(0.15):1"/>
				<v:ud v:nameU="visVersion" v:prompt="" v:val="VT0(15):26"/>
			</v:userDefs>
			<v:textBlock v:margins="rect(4,4,4,4)"/>
			<v:textRect cx="54" cy="589.5" width="108" height="45"/>
			<g id="shadow1002-20" v:groupContext="shadow" v:shadowOffsetX="2.12132" v:shadowOffsetY="-2.12132" v:shadowType="1"
					transform="matrix(1,0,0,1,2.12132,2.12132)" class="st1">
				<path d="M10.8 612 L97.2 612 A10.7998 10.7998 -180 0 0 108 601.2 L108 577.8 A10.7998 10.7998 -180 0 0 97.2 567 L10.8
							 567 A10.7998 10.7998 -180 0 0 0 577.8 L0 601.2 A10.7998 10.7998 -180 0 0 10.8 612 Z" class="st2"/>
			</g>
			<path d="M10.8 612 L97.2 612 A10.7998 10.7998 -180 0 0 108 601.2 L108 577.8 A10.7998 10.7998 -180 0 0 97.2 567 L10.8
						 567 A10.7998 10.7998 -180 0 0 0 577.8 L0 601.2 A10.7998 10.7998 -180 0 0 10.8 612 Z" class="st7"/>
			<text x="38.13" y="593.1" class="st4" v:langID="1033"><v:paragraph v:horizAlign="1"/><v:tabList/>SPIR-V</text>		</g>
		<g id="shape1016-27" v:mID="1016" v:groupContext="shape" transform="translate(405,-378)">
			<title>Snip Corner Rectangle.1016</title>
			<desc>SPIR-V Parser</desc>
			<v:userDefs>
				<v:ud v:nameU="CTypeTopLeftSnip" v:prompt="" v:val="VT0(1):5"/>
				<v:ud v:nameU="CTypeTopRightSnip" v:prompt="" v:val="VT0(1):5"/>
				<v:ud v:nameU="CTypeBotLeftSnip" v:prompt="" v:val="VT0(1):5"/>
				<v:ud v:nameU="CTypeBotRightSnip" v:prompt="" v:val="VT0(1):5"/>
				<v:ud v:nameU="CornerLockHoriz" v:prompt="" v:val="VT0(0):5"/>
				<v:ud v:nameU="CornerLockVert" v:prompt="" v:val="VT0(0):5"/>
				<v:ud v:nameU="CornerLockDiag" v:prompt="" v:val="VT0(0):5"/>
				<v:ud v:nameU="TopLeftOffset" v:prompt="" v:val="VT0(0.15):1"/>
				<v:ud v:nameU="TopRightOffset" v:prompt="" v:val="VT0(0.15):1"/>
				<v:ud v:nameU="BotLeftOffset" v:prompt="" v:val="VT0(0.15):1"/>
				<v:ud v:nameU="BotRightOffset" v:prompt="" v:val="VT0(0.15):1"/>
				<v:ud v:nameU="visVersion" v:prompt="" v:val="VT0(15):26"/>
			</v:userDefs>
			<v:textBlock v:margins="rect(4,4,4,4)"/>
			<v:textRect cx="54" cy="589.5" width="108" height="45"/>
			<g id="shadow1016-28" v:groupContext="shadow" v:shadowOffsetX="2.12132" v:shadowOffsetY="-2.12132" v:shadowType="1"
					transform="matrix(1,0,0,1,2.12132,2.12132)" class="st1">
				<path d="M10.8 612 L97.2 612 L108 601.2 L108 577.8 L97.2 567 L10.8 567 L0 577.8 L0 601.2 L10.8 612 Z" class="st2"/>
			</g>
			<path d="M10.8 612 L97.2 612 L108 601.2 L108 577.8 L97.2 567 L10.8 567 L0 577.8 L0 601.2 L10.8 612 Z" class="st5"/>
			<text x="21.29" y="593.1" class="st4" v:langID="1033"><v:paragraph v:horizAlign="1"/><v:tabList/>SPIR-V Parser</text>		</g>
		<g id="shape1004-34" v:mID="1004" v:groupContext="shape" transform="translate(270,-274.5)">
			<title>Rectangle.1000</title>
			<desc>Generator Interface</desc>
			<v:userDefs>
				<v:ud v:nameU="visVersion" v:val="VT0(15):26"/>
			</v:userDefs>
			<v:textBlock v:margins="rect(4,4,4,4)"/>
			<v:textRect cx="54" cy="589.5" width="108" height="45"/>
			<g id="shadow1004-35" v:groupContext="shadow" v:shadowOffsetX="2.12132" v:shadowOffsetY="-2.12132" v:shadowType="1"
					transform="matrix(1,0,0,1,2.12132,2.12132)" class="st1">
				<rect x="0" y="567" width="108" height="45" class="st2"/>
			</g>
			<rect x="0" y="567" width="108" height="45" class="st8"/>
			<text x="5.53" y="593.1" class="st4" v:langID="1033"><v:paragraph v:horizAlign="1"/><v:tabList/>Generator Interface</text>		</g>
		<g id="shape1005-42" v:mID="1005" v:groupContext="shape" transform="translate(270,-189)">
			<title>Rectangle.1005</title>
			<desc>ASM Generator</desc>
			<v:userDefs>
				<v:ud v:nameU="visVersion" v:val="VT0(15):26"/>
			</v:userDefs>
			<v:textBlock v:margins="rect(4,4,4,4)"/>
			<v:textRect cx="54" cy="589.5" width="108" height="45"/>
			<g id="shadow1005-43" v:groupContext="shadow" v:shadowOffsetX="2.12132" v:shadowOffsetY="-2.12132" v:shadowType="1"
					transform="matrix(1,0,0,1,2.12132,2.12132)" class="st1">
				<rect x="0" y="567" width="108" height="45" class="st2"/>
			</g>
			<rect x="0" y="567" width="108" height="45" class="st9"/>
			<text x="16.15" y="593.1" class="st4" v:langID="1033"><v:paragraph v:horizAlign="1"/><v:tabList/>ASM Generator</text>		</g>
		<g id="shape1006-50" v:mID="1006" v:groupContext="shape" transform="translate(135,-189)">
			<title>Rectangle.1006</title>
			<desc>DXIL Generator</desc>
			<v:userDefs>
				<v:ud v:nameU="visVersion" v:val="VT0(15):26"/>
			</v:userDefs>
			<v:textBlock v:margins="rect(4,4,4,4)"/>
			<v:textRect cx="54" cy="589.5" width="108" height="45"/>
			<g id="shadow1006-51" v:groupContext="shadow" v:shadowOffsetX="2.12132" v:shadowOffsetY="-2.12132" v:shadowType="1"
					transform="matrix(1,0,0,1,2.12132,2.12132)" class="st1">
				<rect x="0" y="567" width="108" height="45" class="st2"/>
			</g>
			<rect x="0" y="567" width="108" height="45" class="st3"/>
			<text x="16.66" y="593.1" class="st4" v:langID="1033"><v:paragraph v:horizAlign="1"/><v:tabList/>DXIL Generator</text>		</g>
		<g id="shape1007-57" v:mID="1007" v:groupContext="shape" transform="translate(405,-189)">
			<title>Rectangle.1007</title>
			<desc>SPIR-V Generator</desc>
			<v:userDefs>
				<v:ud v:nameU="visVersion" v:val="VT0(15):26"/>
			</v:userDefs>
			<v:textBlock v:margins="rect(4,4,4,4)"/>
			<v:textRect cx="54" cy="589.5" width="108" height="45"/>
			<g id="shadow1007-58" v:groupContext="shadow" v:shadowOffsetX="2.12132" v:shadowOffsetY="-2.12132" v:shadowType="1"
					transform="matrix(1,0,0,1,2.12132,2.12132)" class="st1">
				<rect x="0" y="567" width="108" height="45" class="st2"/>
			</g>
			<rect x="0" y="567" width="108" height="45" class="st7"/>
			<text x="11.64" y="593.1" class="st4" v:langID="1033"><v:paragraph v:horizAlign="1"/><v:tabList/>SPIR-V Generator</text>		</g>
		<g id="shape1008-64" v:mID="1008" v:groupContext="shape" v:layerMember="0" transform="translate(180,-450)">
			<title>Dynamic connector.1008</title>
			<path d="M9 612 L9 631.96" class="st10"/>
		</g>
		<g id="shape1009-70" v:mID="1009" v:groupContext="shape" v:layerMember="0" transform="translate(450,-450)">
			<title>Dynamic connector.1009</title>
			<path d="M9 612 L9 631.96" class="st10"/>
		</g>
		<g id="shape1010-75" v:mID="1010" v:groupContext="shape" v:layerMember="0" transform="translate(189,-378)">
			<title>Dynamic connector.1010</title>
			<path d="M0 612 L0 645.75 L135 645.75 L135 663.46" class="st10"/>
		</g>
		<g id="shape1011-80" v:mID="1011" v:groupContext="shape" v:layerMember="0" transform="translate(459,-378)">
			<title>Dynamic connector.1011</title>
			<path d="M0 612 L0 645.75 L-135 645.75 L-135 663.46" class="st10"/>
		</g>
		<g id="shape1012-85" v:mID="1012" v:groupContext="shape" v:layerMember="0" transform="translate(315,-274.5)">
			<title>Dynamic connector.1012</title>
			<path d="M9 612 L9 645.46" class="st10"/>
		</g>
		<g id="shape1013-90" v:mID="1013" v:groupContext="shape" v:layerMember="0" transform="translate(270,-297)">
			<title>Dynamic connector.1013</title>
			<path d="M0 612 L-81 612 L-81 667.96" class="st10"/>
		</g>
		<g id="shape1014-95" v:mID="1014" v:groupContext="shape" v:layerMember="0" transform="translate(378,-297)">
			<title>Dynamic connector.1014</title>
			<path d="M0 612 L81 612 L81 667.96" class="st10"/>
		</g>
	</g>
</svg>
