<?xml version="1.0" encoding="UTF-8" standalone="no"?>
<!DOCTYPE svg PUBLIC "-//W3C//DTD SVG 1.1//EN" "http://www.w3.org/Graphics/SVG/1.1/DTD/svg11.dtd">
<!-- Generated by Microsoft Visio, SVG Export DilithiumPosition.svg Dilithium -->
<svg xmlns="http://www.w3.org/2000/svg" xmlns:xlink="http://www.w3.org/1999/xlink" xmlns:ev="http://www.w3.org/2001/xml-events"
		xmlns:v="http://schemas.microsoft.com/visio/2003/SVGExtensions/" width="11in" height="8.5in" viewBox="0 0 792 612"
		xml:space="preserve" color-interpolation-filters="sRGB" class="st20">
	<v:documentProperties v:langID="1033" v:viewMarkup="false">
		<v:userDefs>
			<v:ud v:nameU="msvSubprocessMaster" v:prompt="" v:val="VT4(Rectangle)"/>
			<v:ud v:nameU="msvNoAutoConnect" v:val="VT0(1):26"/>
		</v:userDefs>
	</v:documentProperties>

	<style type="text/css">
	<![CDATA[
		.st1 {visibility:visible}
		.st2 {fill:#000000;fill-opacity:0.4;filter:url(#filter_2.6666667461395);stroke:#000000;stroke-opacity:0.4}
		.st3 {fill:url(#grad0-7);stroke:#ba8c00;stroke-width:0.75}
		.st4 {fill:#feffff;font-family:Calibri;font-size:1.00001em}
		.st5 {marker-end:url(#mrkr4-14);stroke:#5b9bd5;stroke-linecap:round;stroke-linejoin:round;stroke-width:1}
		.st6 {fill:#5b9bd5;fill-opacity:1;stroke:#5b9bd5;stroke-opacity:1;stroke-width:0.28409090909091}
		.st7 {fill:url(#grad0-21);stroke:#40709c;stroke-width:0.75}
		.st8 {font-size:1em}
		.st9 {fill:url(#grad0-42);stroke:#ae5a21;stroke-width:0.75}
		.st10 {fill:url(#grad0-50);stroke:#8a98ab;stroke-width:0.75}
		.st11 {fill:#feffff;font-family:Calibri;font-size:1.16666em}
		.st12 {fill:url(#grad0-63);stroke:#4f87bb;stroke-width:0.75}
		.st13 {fill:#4f87bb;font-family:Calibri;font-size:1.16666em}
		.st14 {fill:#ffffff;stroke:none;stroke-linecap:butt;stroke-width:7.2}
		.st15 {fill:url(#grad0-147);stroke:#507e31;stroke-width:0.75}
		.st16 {fill:#feffff;font-family:Calibri;font-size:1.5em}
		.st17 {fill:#ed7d31;fill-opacity:0.25;filter:url(#filter_2);stroke:#ed7d31;stroke-opacity:0.25}
		.st18 {marker-end:url(#mrkr4-166);stroke:#5b9bd5;stroke-linecap:round;stroke-linejoin:round;stroke-width:3}
		.st19 {fill:#5b9bd5;fill-opacity:1;stroke:#5b9bd5;stroke-opacity:1;stroke-width:0.54347826086957}
		.st20 {fill:none;fill-rule:evenodd;font-size:12px;overflow:visible;stroke-linecap:square;stroke-miterlimit:3}
	]]>
	</style>

	<defs id="Patterns_And_Gradients">
		<linearGradient id="grad0-7" x1="0" y1="0" x2="1" y2="0" gradientTransform="rotate(250 0.5 0.5)">
			<stop offset="0" stop-color="#dfa800" stop-opacity="1"/>
			<stop offset="0.48" stop-color="#dfa800" stop-opacity="1"/>
			<stop offset="0.82" stop-color="#fec000" stop-opacity="1"/>
		</linearGradient>
		<linearGradient id="grad0-21" x1="0" y1="0" x2="1" y2="0" gradientTransform="rotate(250 0.5 0.5)">
			<stop offset="0" stop-color="#4f87bb" stop-opacity="1"/>
			<stop offset="0.48" stop-color="#4f87bb" stop-opacity="1"/>
			<stop offset="0.82" stop-color="#5b9bd5" stop-opacity="1"/>
		</linearGradient>
		<linearGradient id="grad0-42" x1="0" y1="0" x2="1" y2="0" gradientTransform="rotate(250 0.5 0.5)">
			<stop offset="0" stop-color="#d06d29" stop-opacity="1"/>
			<stop offset="0.48" stop-color="#d06d29" stop-opacity="1"/>
			<stop offset="0.82" stop-color="#ed7d31" stop-opacity="1"/>
		</linearGradient>
		<linearGradient id="grad0-50" x1="0" y1="0" x2="1" y2="0" gradientTransform="rotate(250 0.5 0.5)">
			<stop offset="0" stop-color="#a6b6cd" stop-opacity="1"/>
			<stop offset="0.48" stop-color="#a6b6cd" stop-opacity="1"/>
			<stop offset="0.82" stop-color="#bdd0e9" stop-opacity="1"/>
		</linearGradient>
		<linearGradient id="grad0-63" x1="0" y1="0" x2="1" y2="0" gradientTransform="rotate(60 0.5 0.5)">
			<stop offset="0" stop-color="#e9eff7" stop-opacity="1"/>
			<stop offset="0.24" stop-color="#f4f7fb" stop-opacity="1"/>
			<stop offset="0.54" stop-color="#feffff" stop-opacity="1"/>
		</linearGradient>
		<linearGradient id="grad0-147" x1="0" y1="0" x2="1" y2="0" gradientTransform="rotate(250 0.5 0.5)">
			<stop offset="0" stop-color="#61973d" stop-opacity="1"/>
			<stop offset="0.48" stop-color="#61973d" stop-opacity="1"/>
			<stop offset="0.82" stop-color="#70ad47" stop-opacity="1"/>
		</linearGradient>
	</defs>
	<defs id="Markers">
		<g id="lend4">
			<path d="M 2 1 L 0 0 L 2 -1 L 2 1 " style="stroke:none"/>
		</g>
		<marker id="mrkr4-14" class="st6" v:arrowType="4" v:arrowSize="2" v:setback="7.04" refX="-7.04" orient="auto"
				markerUnits="strokeWidth" overflow="visible">
			<use xlink:href="#lend4" transform="scale(-3.52,-3.52) "/>
		</marker>
		<marker id="mrkr4-166" class="st19" v:arrowType="4" v:arrowSize="2" v:setback="3.68" refX="-3.68" orient="auto"
				markerUnits="strokeWidth" overflow="visible">
			<use xlink:href="#lend4" transform="scale(-1.84,-1.84) "/>
		</marker>
	</defs>
	<defs id="Filters">
		<filter id="filter_2.6666667461395">
			<feGaussianBlur stdDeviation="2.6666667461395"/>
		</filter>
		<filter id="filter_2">
			<feGaussianBlur stdDeviation="2"/>
		</filter>
	</defs>
	<g v:mID="12" v:index="6" v:groupContext="foregroundPage">
		<v:userDefs>
			<v:ud v:nameU="msvThemeOrder" v:val="VT0(0):26"/>
		</v:userDefs>
		<title>Dilithium</title>
		<v:pageProperties v:drawingScale="1" v:pageScale="1" v:drawingUnits="0" v:shadowOffsetX="9" v:shadowOffsetY="-9"/>
		<v:layer v:name="Connector" v:index="0"/>
		<g id="shape1000-1" v:mID="1000" v:groupContext="shape" transform="translate(54,-54)">
			<title>Rounded Rectangle.1035</title>
			<desc>D3D</desc>
			<v:userDefs>
				<v:ud v:nameU="CTypeTopLeftSnip" v:prompt="" v:val="VT0(0):5"/>
				<v:ud v:nameU="CTypeTopRightSnip" v:prompt="" v:val="VT0(0):5"/>
				<v:ud v:nameU="CTypeBotLeftSnip" v:prompt="" v:val="VT0(0):5"/>
				<v:ud v:nameU="CTypeBotRightSnip" v:prompt="" v:val="VT0(0):5"/>
				<v:ud v:nameU="CornerLockHoriz" v:prompt="" v:val="VT0(1):5"/>
				<v:ud v:nameU="CornerLockVert" v:prompt="" v:val="VT0(1):5"/>
				<v:ud v:nameU="CornerLockDiag" v:prompt="" v:val="VT0(0):5"/>
				<v:ud v:nameU="TopLeftOffset" v:prompt="" v:val="VT0(0.15):1"/>
				<v:ud v:nameU="TopRightOffset" v:prompt="" v:val="VT0(0.15):1"/>
				<v:ud v:nameU="BotLeftOffset" v:prompt="" v:val="VT0(0.15):1"/>
				<v:ud v:nameU="BotRightOffset" v:prompt="" v:val="VT0(0.15):1"/>
				<v:ud v:nameU="visVersion" v:prompt="" v:val="VT0(15):26"/>
			</v:userDefs>
			<v:textBlock v:margins="rect(4,4,4,4)"/>
			<v:textRect cx="54" cy="589.5" width="108" height="45"/>
			<g id="shadow1000-2" v:groupContext="shadow" v:shadowOffsetX="2.12132" v:shadowOffsetY="-2.12132" v:shadowType="1"
					transform="matrix(1,0,0,1,2.12132,2.12132)" class="st1">
				<path d="M10.8 612 L97.2 612 A10.7998 10.7998 -180 0 0 108 601.2 L108 577.8 A10.7998 10.7998 -180 0 0 97.2 567 L10.8
							 567 A10.7998 10.7998 -180 0 0 0 577.8 L0 601.2 A10.7998 10.7998 -180 0 0 10.8 612 Z" class="st2"/>
			</g>
			<path d="M10.8 612 L97.2 612 A10.7998 10.7998 -180 0 0 108 601.2 L108 577.8 A10.7998 10.7998 -180 0 0 97.2 567 L10.8
						 567 A10.7998 10.7998 -180 0 0 0 577.8 L0 601.2 A10.7998 10.7998 -180 0 0 10.8 612 Z" class="st3"/>
			<text x="43.58" y="593.1" class="st4" v:langID="2052"><v:paragraph v:horizAlign="1"/><v:tabList/>D3D</text>		</g>
		<g id="shape1002-9" v:mID="1002" v:groupContext="shape" v:layerMember="0" transform="translate(99,-391.5)">
			<title>Dynamic connector.18</title>
			<path d="M9 612 L9 640.96" class="st5"/>
		</g>
		<g id="shape1003-15" v:mID="1003" v:groupContext="shape" transform="translate(54,-391.5)">
			<title>Rectangle.17</title>
			<desc>DX Shader Compiler</desc>
			<v:userDefs>
				<v:ud v:nameU="visVersion" v:val="VT0(15):26"/>
			</v:userDefs>
			<v:textBlock v:margins="rect(4,4,4,4)"/>
			<v:textRect cx="54" cy="589.5" width="108" height="45"/>
			<g id="shadow1003-16" v:groupContext="shadow" v:shadowOffsetX="2.12132" v:shadowOffsetY="-2.12132" v:shadowType="1"
					transform="matrix(1,0,0,1,2.12132,2.12132)" class="st1">
				<rect x="0" y="567" width="108" height="45" class="st2"/>
			</g>
			<rect x="0" y="567" width="108" height="45" class="st7"/>
			<text x="5.33" y="593.1" class="st4" v:langID="2052"><v:paragraph v:horizAlign="1"/><v:tabList/>D<tspan class="st8"
						v:langID="1033">X Shader </tspan>Compiler</text>		</g>
		<g id="shape1004-24" v:mID="1004" v:groupContext="shape" transform="translate(54,-310.5)">
			<title>Rectangle.19</title>
			<desc>DXIL</desc>
			<v:userDefs>
				<v:ud v:nameU="CTypeTopLeftSnip" v:prompt="" v:val="VT0(0):5"/>
				<v:ud v:nameU="CTypeTopRightSnip" v:prompt="" v:val="VT0(0):5"/>
				<v:ud v:nameU="CTypeBotLeftSnip" v:prompt="" v:val="VT0(0):5"/>
				<v:ud v:nameU="CTypeBotRightSnip" v:prompt="" v:val="VT0(0):5"/>
				<v:ud v:nameU="CornerLockHoriz" v:prompt="" v:val="VT0(1):5"/>
				<v:ud v:nameU="CornerLockVert" v:prompt="" v:val="VT0(1):5"/>
				<v:ud v:nameU="CornerLockDiag" v:prompt="" v:val="VT0(0):5"/>
				<v:ud v:nameU="TopLeftOffset" v:prompt="" v:val="VT0(0.15):1"/>
				<v:ud v:nameU="TopRightOffset" v:prompt="" v:val="VT0(0.15):1"/>
				<v:ud v:nameU="BotLeftOffset" v:prompt="" v:val="VT0(0.15):1"/>
				<v:ud v:nameU="BotRightOffset" v:prompt="" v:val="VT0(0.15):1"/>
				<v:ud v:nameU="visVersion" v:prompt="" v:val="VT0(15):26"/>
			</v:userDefs>
			<v:textBlock v:margins="rect(4,4,4,4)"/>
			<v:textRect cx="54" cy="589.5" width="108" height="45"/>
			<g id="shadow1004-25" v:groupContext="shadow" v:shadowOffsetX="2.12132" v:shadowOffsetY="-2.12132" v:shadowType="1"
					transform="matrix(1,0,0,1,2.12132,2.12132)" class="st1">
				<path d="M10.8 612 L97.2 612 A10.7998 10.7998 -180 0 0 108 601.2 L108 577.8 A10.7998 10.7998 -180 0 0 97.2 567 L10.8
							 567 A10.7998 10.7998 -180 0 0 0 577.8 L0 601.2 A10.7998 10.7998 -180 0 0 10.8 612 Z" class="st2"/>
			</g>
			<path d="M10.8 612 L97.2 612 A10.7998 10.7998 -180 0 0 108 601.2 L108 577.8 A10.7998 10.7998 -180 0 0 97.2 567 L10.8
						 567 A10.7998 10.7998 -180 0 0 0 577.8 L0 601.2 A10.7998 10.7998 -180 0 0 10.8 612 Z" class="st3"/>
			<text x="43.16" y="593.1" class="st4" v:langID="2052"><v:paragraph v:horizAlign="1"/><v:tabList/>DXIL</text>		</g>
		<g id="shape1005-31" v:mID="1005" v:groupContext="shape" v:layerMember="0" transform="translate(99,-310.5)">
			<title>Dynamic connector.11</title>
			<path d="M9 612 L9 816.46" class="st5"/>
		</g>
		<g id="shape1006-36" v:mID="1006" v:groupContext="shape" transform="translate(315,-310.5)">
			<title>Rounded Rectangle.1037</title>
			<desc>SPIR-V</desc>
			<v:userDefs>
				<v:ud v:nameU="CTypeTopLeftSnip" v:prompt="" v:val="VT0(0):5"/>
				<v:ud v:nameU="CTypeTopRightSnip" v:prompt="" v:val="VT0(0):5"/>
				<v:ud v:nameU="CTypeBotLeftSnip" v:prompt="" v:val="VT0(0):5"/>
				<v:ud v:nameU="CTypeBotRightSnip" v:prompt="" v:val="VT0(0):5"/>
				<v:ud v:nameU="CornerLockHoriz" v:prompt="" v:val="VT0(1):5"/>
				<v:ud v:nameU="CornerLockVert" v:prompt="" v:val="VT0(1):5"/>
				<v:ud v:nameU="CornerLockDiag" v:prompt="" v:val="VT0(0):5"/>
				<v:ud v:nameU="TopLeftOffset" v:prompt="" v:val="VT0(0.15):1"/>
				<v:ud v:nameU="TopRightOffset" v:prompt="" v:val="VT0(0.15):1"/>
				<v:ud v:nameU="BotLeftOffset" v:prompt="" v:val="VT0(0.15):1"/>
				<v:ud v:nameU="BotRightOffset" v:prompt="" v:val="VT0(0.15):1"/>
				<v:ud v:nameU="visVersion" v:prompt="" v:val="VT0(15):26"/>
			</v:userDefs>
			<v:textBlock v:margins="rect(4,4,4,4)"/>
			<v:textRect cx="54" cy="589.5" width="108" height="45"/>
			<g id="shadow1006-37" v:groupContext="shadow" v:shadowOffsetX="2.12132" v:shadowOffsetY="-2.12132" v:shadowType="1"
					transform="matrix(1,0,0,1,2.12132,2.12132)" class="st1">
				<path d="M10.8 612 L97.2 612 A10.7998 10.7998 -180 0 0 108 601.2 L108 577.8 A10.7998 10.7998 -180 0 0 97.2 567 L10.8
							 567 A10.7998 10.7998 -180 0 0 0 577.8 L0 601.2 A10.7998 10.7998 -180 0 0 10.8 612 Z" class="st2"/>
			</g>
			<path d="M10.8 612 L97.2 612 A10.7998 10.7998 -180 0 0 108 601.2 L108 577.8 A10.7998 10.7998 -180 0 0 97.2 567 L10.8
						 567 A10.7998 10.7998 -180 0 0 0 577.8 L0 601.2 A10.7998 10.7998 -180 0 0 10.8 612 Z" class="st9"/>
			<text x="38.13" y="593.1" class="st4" v:langID="1033"><v:paragraph v:horizAlign="1"/><v:tabList/>SPIR-V</text>		</g>
		<g id="shape1007-44" v:mID="1007" v:groupContext="shape" transform="translate(315,-391.5)">
			<title>Rectangle</title>
			<desc>glslang</desc>
			<v:userDefs>
				<v:ud v:nameU="visVersion" v:val="VT0(15):26"/>
			</v:userDefs>
			<v:textBlock v:margins="rect(4,4,4,4)"/>
			<v:textRect cx="54" cy="589.5" width="108" height="45"/>
			<g id="shadow1007-45" v:groupContext="shadow" v:shadowOffsetX="2.12132" v:shadowOffsetY="-2.12132" v:shadowType="1"
					transform="matrix(1,0,0,1,2.12132,2.12132)" class="st1">
				<rect x="0" y="567" width="108" height="45" class="st2"/>
			</g>
			<rect x="0" y="567" width="108" height="45" class="st10"/>
			<text x="34.43" y="593.7" class="st11" v:langID="1033"><v:paragraph v:horizAlign="1"/><v:tabList/>glslang</text>		</g>
		<g id="shape1008-52" v:mID="1008" v:groupContext="shape" v:layerMember="0" transform="translate(360,-391.5)">
			<title>Dynamic connector.24</title>
			<path d="M9 612 L9 640.96" class="st5"/>
		</g>
		<g id="shape1010-57" v:mID="1010" v:groupContext="shape" transform="translate(54,-513)">
			<title>Ellipse</title>
			<desc>HLSL</desc>
			<v:userDefs>
				<v:ud v:nameU="visVersion" v:val="VT0(15):26"/>
			</v:userDefs>
			<v:textBlock v:margins="rect(4,4,4,4)"/>
			<v:textRect cx="54" cy="579" width="94.5" height="57.75"/>
			<g id="shadow1010-58" v:groupContext="shadow" v:shadowOffsetX="2.12132" v:shadowOffsetY="-2.12132" v:shadowType="1"
					transform="matrix(1,0,0,1,2.12132,2.12132)" class="st1">
				<path d="M0 579 A54 33 0 0 1 108 579 A54 33 0 1 1 0 579 Z" class="st2"/>
			</g>
			<path d="M0 579 A54 33 0 0 1 108 579 A54 33 0 1 1 0 579 Z" class="st12"/>
			<text x="40.54" y="583.2" class="st13" v:langID="2052"><v:paragraph v:horizAlign="1"/><v:tabList/>HLSL</text>		</g>
		<g id="shape1011-65" v:mID="1011" v:groupContext="shape" v:layerMember="0" transform="translate(360,-513)">
			<title>Dynamic connector</title>
			<path d="M9 612 L9 681.46" class="st5"/>
		</g>
		<g id="shape1012-70" v:mID="1012" v:groupContext="shape" v:layerMember="0" transform="translate(99,-513)">
			<title>Dynamic connector.33</title>
			<path d="M9 612 L9 681.46" class="st5"/>
		</g>
		<g id="shape1013-75" v:mID="1013" v:groupContext="shape" transform="translate(315,-513)">
			<title>Ellipse.1013</title>
			<desc>GLSL/ESSL</desc>
			<v:userDefs>
				<v:ud v:nameU="visVersion" v:val="VT0(15):26"/>
			</v:userDefs>
			<v:textBlock v:margins="rect(4,4,4,4)"/>
			<v:textRect cx="54" cy="579" width="94.5" height="57.75"/>
			<g id="shadow1013-76" v:groupContext="shadow" v:shadowOffsetX="2.12132" v:shadowOffsetY="-2.12132" v:shadowType="1"
					transform="matrix(1,0,0,1,2.12132,2.12132)" class="st1">
				<path d="M0 579 A54 33 0 0 1 108 579 A54 33 0 1 1 0 579 Z" class="st2"/>
			</g>
			<path d="M0 579 A54 33 0 0 1 108 579 A54 33 0 1 1 0 579 Z" class="st12"/>
			<text x="24.99" y="583.2" class="st13" v:langID="1033"><v:paragraph v:horizAlign="1"/><v:tabList/>GLSL/ESSL</text>		</g>
		<g id="shape1014-82" v:mID="1014" v:groupContext="shape" transform="translate(526.5,-54)">
			<title>Rectangle.1014</title>
			<desc>OpenGL/OpenGLES</desc>
			<v:userDefs>
				<v:ud v:nameU="CTypeTopLeftSnip" v:prompt="" v:val="VT0(0):5"/>
				<v:ud v:nameU="CTypeTopRightSnip" v:prompt="" v:val="VT0(0):5"/>
				<v:ud v:nameU="CTypeBotLeftSnip" v:prompt="" v:val="VT0(0):5"/>
				<v:ud v:nameU="CTypeBotRightSnip" v:prompt="" v:val="VT0(0):5"/>
				<v:ud v:nameU="CornerLockHoriz" v:prompt="" v:val="VT0(1):5"/>
				<v:ud v:nameU="CornerLockVert" v:prompt="" v:val="VT0(1):5"/>
				<v:ud v:nameU="CornerLockDiag" v:prompt="" v:val="VT0(0):5"/>
				<v:ud v:nameU="TopLeftOffset" v:prompt="" v:val="VT0(0.15):1"/>
				<v:ud v:nameU="TopRightOffset" v:prompt="" v:val="VT0(0.15):1"/>
				<v:ud v:nameU="BotLeftOffset" v:prompt="" v:val="VT0(0.15):1"/>
				<v:ud v:nameU="BotRightOffset" v:prompt="" v:val="VT0(0.15):1"/>
				<v:ud v:nameU="visVersion" v:prompt="" v:val="VT0(15):26"/>
			</v:userDefs>
			<v:textBlock v:margins="rect(4,4,4,4)"/>
			<v:textRect cx="54" cy="589.5" width="108" height="45"/>
			<g id="shadow1014-83" v:groupContext="shadow" v:shadowOffsetX="2.12132" v:shadowOffsetY="-2.12132" v:shadowType="1"
					transform="matrix(1,0,0,1,2.12132,2.12132)" class="st1">
				<path d="M10.8 612 L97.2 612 A10.7998 10.7998 -180 0 0 108 601.2 L108 577.8 A10.7998 10.7998 -180 0 0 97.2 567 L10.8
							 567 A10.7998 10.7998 -180 0 0 0 577.8 L0 601.2 A10.7998 10.7998 -180 0 0 10.8 612 Z" class="st2"/>
			</g>
			<path d="M10.8 612 L97.2 612 A10.7998 10.7998 -180 0 0 108 601.2 L108 577.8 A10.7998 10.7998 -180 0 0 97.2 567 L10.8
						 567 A10.7998 10.7998 -180 0 0 0 577.8 L0 601.2 A10.7998 10.7998 -180 0 0 10.8 612 Z" class="st9"/>
			<text x="6.86" y="593.1" class="st4" v:langID="2052"><v:paragraph v:horizAlign="1"/><v:tabList/>OpenGL<tspan
						class="st8" v:langID="1033">/OpenGLES</tspan></text>		</g>
		<g id="shape1016-90" v:mID="1016" v:groupContext="shape" transform="translate(423,-117)">
			<title>Rounded Rectangle.1013</title>
			<desc>GLSL/ESSL</desc>
			<v:userDefs>
				<v:ud v:nameU="CTypeTopLeftSnip" v:prompt="" v:val="VT0(0):5"/>
				<v:ud v:nameU="CTypeTopRightSnip" v:prompt="" v:val="VT0(0):5"/>
				<v:ud v:nameU="CTypeBotLeftSnip" v:prompt="" v:val="VT0(0):5"/>
				<v:ud v:nameU="CTypeBotRightSnip" v:prompt="" v:val="VT0(0):5"/>
				<v:ud v:nameU="CornerLockHoriz" v:prompt="" v:val="VT0(1):5"/>
				<v:ud v:nameU="CornerLockVert" v:prompt="" v:val="VT0(1):5"/>
				<v:ud v:nameU="CornerLockDiag" v:prompt="" v:val="VT0(0):5"/>
				<v:ud v:nameU="TopLeftOffset" v:prompt="" v:val="VT0(0.15):1"/>
				<v:ud v:nameU="TopRightOffset" v:prompt="" v:val="VT0(0.15):1"/>
				<v:ud v:nameU="BotLeftOffset" v:prompt="" v:val="VT0(0.15):1"/>
				<v:ud v:nameU="BotRightOffset" v:prompt="" v:val="VT0(0.15):1"/>
				<v:ud v:nameU="visVersion" v:prompt="" v:val="VT0(15):26"/>
			</v:userDefs>
			<v:textBlock v:margins="rect(4,4,4,4)"/>
			<v:textRect cx="54" cy="589.5" width="108" height="45"/>
			<g id="shadow1016-91" v:groupContext="shadow" v:shadowOffsetX="2.12132" v:shadowOffsetY="-2.12132" v:shadowType="1"
					transform="matrix(1,0,0,1,2.12132,2.12132)" class="st1">
				<path d="M10.8 612 L97.2 612 A10.7998 10.7998 -180 0 0 108 601.2 L108 577.8 A10.7998 10.7998 -180 0 0 97.2 567 L10.8
							 567 A10.7998 10.7998 -180 0 0 0 577.8 L0 601.2 A10.7998 10.7998 -180 0 0 10.8 612 Z" class="st2"/>
			</g>
			<path d="M10.8 612 L97.2 612 A10.7998 10.7998 -180 0 0 108 601.2 L108 577.8 A10.7998 10.7998 -180 0 0 97.2 567 L10.8
						 567 A10.7998 10.7998 -180 0 0 0 577.8 L0 601.2 A10.7998 10.7998 -180 0 0 10.8 612 Z" class="st9"/>
			<text x="29.13" y="593.1" class="st4" v:langID="2052"><v:paragraph v:horizAlign="1"/><v:tabList/>GLSL<tspan class="st8"
						v:langID="1033">/ESSL</tspan></text>		</g>
		<g id="shape1020-98" v:mID="1020" v:groupContext="shape" v:layerMember="0" transform="translate(625.5,-281.25)">
			<title>Dynamic connector.1020</title>
			<desc>Y</desc>
			<v:textBlock v:margins="rect(4,4,4,4)"/>
			<v:textRect cx="22.5" cy="714.375" width="70" height="24.8035"/>
			<path d="M9 612 L22.5 612 L22.5 816.75 L16.04 816.75" class="st5"/>
			<rect v:rectContext="textBkgnd" x="19.089" y="705.975" width="6.82224" height="16.8" class="st14"/>
			<text x="19.09" y="718.58" class="st13" v:langID="1033"><v:paragraph v:horizAlign="1"/><v:tabList/>Y</text>		</g>
		<g id="shape1021-105" v:mID="1021" v:groupContext="shape" v:layerMember="0" transform="translate(526.5,-281.25)">
			<title>Dynamic connector.26</title>
			<desc>N</desc>
			<v:textBlock v:margins="rect(4,4,4,4)"/>
			<v:textRect cx="-46.125" cy="612" width="70" height="24.8035"/>
			<path d="M0 612 L-49.5 612 L-49.5 647.71" class="st5"/>
			<rect v:rectContext="textBkgnd" x="-50.6434" y="603.6" width="9.03708" height="16.8" class="st14"/>
			<text x="-50.64" y="616.2" class="st13" v:langID="1033"><v:paragraph v:horizAlign="1"/><v:tabList/>N</text>		</g>
		<g id="shape1023-112" v:mID="1023" v:groupContext="shape" transform="translate(315,-54)">
			<title>Rounded Rectangle.1017</title>
			<desc>Vulkan</desc>
			<v:userDefs>
				<v:ud v:nameU="CTypeTopLeftSnip" v:prompt="" v:val="VT0(0):5"/>
				<v:ud v:nameU="CTypeTopRightSnip" v:prompt="" v:val="VT0(0):5"/>
				<v:ud v:nameU="CTypeBotLeftSnip" v:prompt="" v:val="VT0(0):5"/>
				<v:ud v:nameU="CTypeBotRightSnip" v:prompt="" v:val="VT0(0):5"/>
				<v:ud v:nameU="CornerLockHoriz" v:prompt="" v:val="VT0(1):5"/>
				<v:ud v:nameU="CornerLockVert" v:prompt="" v:val="VT0(1):5"/>
				<v:ud v:nameU="CornerLockDiag" v:prompt="" v:val="VT0(0):5"/>
				<v:ud v:nameU="TopLeftOffset" v:prompt="" v:val="VT0(0.15):1"/>
				<v:ud v:nameU="TopRightOffset" v:prompt="" v:val="VT0(0.15):1"/>
				<v:ud v:nameU="BotLeftOffset" v:prompt="" v:val="VT0(0.15):1"/>
				<v:ud v:nameU="BotRightOffset" v:prompt="" v:val="VT0(0.15):1"/>
				<v:ud v:nameU="visVersion" v:prompt="" v:val="VT0(15):26"/>
			</v:userDefs>
			<v:textBlock v:margins="rect(4,4,4,4)"/>
			<v:textRect cx="54" cy="589.5" width="108" height="45"/>
			<g id="shadow1023-113" v:groupContext="shadow" v:shadowOffsetX="2.12132" v:shadowOffsetY="-2.12132" v:shadowType="1"
					transform="matrix(1,0,0,1,2.12132,2.12132)" class="st1">
				<path d="M10.8 612 L97.2 612 A10.7998 10.7998 -180 0 0 108 601.2 L108 577.8 A10.7998 10.7998 -180 0 0 97.2 567 L10.8
							 567 A10.7998 10.7998 -180 0 0 0 577.8 L0 601.2 A10.7998 10.7998 -180 0 0 10.8 612 Z" class="st2"/>
			</g>
			<path d="M10.8 612 L97.2 612 A10.7998 10.7998 -180 0 0 108 601.2 L108 577.8 A10.7998 10.7998 -180 0 0 97.2 567 L10.8
						 567 A10.7998 10.7998 -180 0 0 0 577.8 L0 601.2 A10.7998 10.7998 -180 0 0 10.8 612 Z" class="st9"/>
			<text x="37.31" y="593.1" class="st4" v:langID="2052"><v:paragraph v:horizAlign="1"/><v:tabList/>Vulkan</text>		</g>
		<g id="shape1024-119" v:mID="1024" v:groupContext="shape" v:layerMember="0" transform="translate(360,-310.5)">
			<title>Dynamic connector.30</title>
			<path d="M9 612 L9 816.46" class="st5"/>
		</g>
		<g id="shape1025-124" v:mID="1025" v:groupContext="shape" transform="translate(423,-193.5)">
			<title>Rectangle.1000</title>
			<desc>SPIRV-Cross</desc>
			<v:userDefs>
				<v:ud v:nameU="visVersion" v:val="VT0(15):26"/>
			</v:userDefs>
			<v:textBlock v:margins="rect(4,4,4,4)"/>
			<v:textRect cx="54" cy="589.5" width="108" height="45"/>
			<g id="shadow1025-125" v:groupContext="shadow" v:shadowOffsetX="2.12132" v:shadowOffsetY="-2.12132" v:shadowType="1"
					transform="matrix(1,0,0,1,2.12132,2.12132)" class="st1">
				<rect x="0" y="567" width="108" height="45" class="st2"/>
			</g>
			<rect x="0" y="567" width="108" height="45" class="st10"/>
			<text x="24.98" y="593.1" class="st4" v:langID="1033"><v:paragraph v:horizAlign="1"/><v:tabList/>SPIRV-Cross</text>		</g>
		<g id="shape1026-131" v:mID="1026" v:groupContext="shape" v:layerMember="0" transform="translate(468,-193.5)">
			<title>Dynamic connector.1001</title>
			<path d="M9 612 L9 636.46" class="st5"/>
		</g>
		<g id="shape1032-136" v:mID="1032" v:groupContext="shape" v:layerMember="0" transform="translate(477,-117)">
			<title>Dynamic connector.1032</title>
			<path d="M0 612 L0 652.5 L42.46 652.5" class="st5"/>
		</g>
		<g id="shape1034-141" v:mID="1034" v:groupContext="shape" transform="translate(186.75,-281.25)">
			<title>24-Point Star.1034</title>
			<desc>Dilithium</desc>
			<v:userDefs>
				<v:ud v:nameU="CtrlYOffset" v:prompt="" v:val="VT0(0.5):1"/>
				<v:ud v:nameU="CtrlXOffset" v:prompt="" v:val="VT0(0.065826248793698):1"/>
				<v:ud v:nameU="CtrlAngle" v:prompt="" v:val="VT0(0.13089969389958):26"/>
				<v:ud v:nameU="ElbowDist" v:prompt="" v:val="VT0(0.50431448029008):1"/>
				<v:ud v:nameU="visVersion" v:prompt="" v:val="VT0(15):26"/>
				<v:ud v:nameU="CtrlYOffset" v:prompt="" v:val="VT0(0.57500000059605):1"/>
				<v:ud v:nameU="CtrlXOffset" v:prompt="" v:val="VT0(0.075700186191224):1"/>
				<v:ud v:nameU="ElbowDist" v:prompt="" v:val="VT0(0.57996165293478):1"/>
			</v:userDefs>
			<v:textBlock v:margins="rect(4,4,4,4)"/>
			<v:textRect cx="51.75" cy="560.25" width="103.51" height="103.5"/>
			<g id="shadow1034-142" v:groupContext="shadow" v:shadowOffsetX="2.12132" v:shadowOffsetY="-2.12132" v:shadowType="1"
					transform="matrix(1,0,0,1,2.12132,2.12132)" class="st1">
				<path d="M51.75 508.5 L57.2 518.85 L65.14 510.26 L67.73 521.67 L77.63 515.43 L77.17 527.12 L88.34 523.66 L84.88 534.83
							 L96.57 534.37 L90.33 544.27 L101.74 546.86 L93.15 554.8 L103.5 560.25 L93.15 565.7 L101.74 573.64 L90.33
							 576.23 L96.57 586.12 L84.88 585.67 L88.34 596.84 L77.17 593.38 L77.63 605.07 L67.73 598.83 L65.14 610.24
							 L57.2 601.65 L51.75 612 L46.3 601.65 L38.36 610.24 L35.77 598.83 L25.88 605.07 L26.33 593.38 L15.16
							 596.84 L18.62 585.67 L6.93 586.12 L13.17 576.23 L1.76 573.64 L10.35 565.7 L0 560.25 L10.35 554.8 L1.76
							 546.86 L13.17 544.27 L6.93 534.37 L18.62 534.83 L15.16 523.66 L26.33 527.12 L25.88 515.43 L35.77 521.67
							 L38.36 510.26 L46.3 518.85 L51.75 508.5 Z" class="st2"/>
			</g>
			<path d="M51.75 508.5 L57.2 518.85 L65.14 510.26 L67.73 521.67 L77.63 515.43 L77.17 527.12 L88.34 523.66 L84.88 534.83
						 L96.57 534.37 L90.33 544.27 L101.74 546.86 L93.15 554.8 L103.5 560.25 L93.15 565.7 L101.74 573.64 L90.33
						 576.23 L96.57 586.12 L84.88 585.67 L88.34 596.84 L77.17 593.38 L77.63 605.07 L67.73 598.83 L65.14 610.24
						 L57.2 601.65 L51.75 612 L46.3 601.65 L38.36 610.24 L35.77 598.83 L25.88 605.07 L26.33 593.38 L15.16 596.84
						 L18.62 585.67 L6.93 586.12 L13.17 576.23 L1.76 573.64 L10.35 565.7 L0 560.25 L10.35 554.8 L1.76 546.86 L13.17
						 544.27 L6.93 534.37 L18.62 534.83 L15.16 523.66 L26.33 527.12 L25.88 515.43 L35.77 521.67 L38.36 510.26
						 L46.3 518.85 L51.75 508.5 Z" class="st15"/>
			<text x="18.29" y="565.65" class="st16" v:langID="1033"><v:paragraph v:horizAlign="1"/><v:tabList/>Dilithium</text>		</g>
		<g id="shape1035-149" v:mID="1035" v:groupContext="shape" transform="translate(526.5,-245.25)">
			<title>Diamond.1035</title>
			<desc>ARB_gl_spirv</desc>
			<v:userDefs>
				<v:ud v:nameU="visVersion" v:prompt="" v:val="VT0(15):26"/>
			</v:userDefs>
			<v:textBlock v:margins="rect(4,4,4,4)"/>
			<v:textRect cx="54" cy="576" width="108" height="72"/>
			<g id="shadow1035-150" v:groupContext="shadow" v:shadowOffsetX="0.345598" v:shadowOffsetY="-1.97279" v:shadowType="1"
					transform="matrix(1,0,0,1,0.345598,1.97279)" class="st1">
				<path d="M54 612 L108 576 L54 540 L0 576 L54 612 Z" class="st17"/>
			</g>
			<path d="M54 612 L108 576 L54 540 L0 576 L54 612 Z" class="st9"/>
			<text x="22.15" y="579.6" class="st4" v:langID="1033"><v:paragraph v:horizAlign="1"/><v:tabList/>ARB_gl_spirv</text>		</g>
		<g id="shape1036-156" v:mID="1036" v:groupContext="shape" v:layerMember="0" transform="translate(423,-334.125)">
			<title>Dynamic connector.1036</title>
			<path d="M0 613.12 L157.5 613.12 L157.5 621.84" class="st5"/>
		</g>
		<g id="shape1037-161" v:mID="1037" v:groupContext="shape" v:layerMember="0" transform="translate(186.75,-324)">
			<title>Dynamic connector.1037</title>
			<path d="M0 603 L-13.71 603" class="st18"/>
		</g>
		<g id="shape1038-167" v:mID="1038" v:groupContext="shape" v:layerMember="0" transform="translate(290.25,-324)">
			<title>Dynamic connector.1038</title>
			<path d="M0 603 L13.71 603" class="st18"/>
		</g>
	</g>
</svg>
